<svg width="100" height="100" viewBox="0 0 100 100" fill="none" xmlns="http://www.w3.org/2000/svg">
<g clip-path="url(#clip0_34_2)">
<path fill-rule="evenodd" clip-rule="evenodd" d="M50 93.75C25.8375 93.75 6.25 74.1563 6.25 50C6.25 25.8437 25.8375 6.25 50 6.25C74.1625 6.25 93.75 25.8437 93.75 50C93.75 74.1563 74.1625 93.75 50 93.75ZM50 0C22.3844 0 0 22.375 0 50C0 77.625 22.3844 100 50 100C77.6156 100 100 77.625 100 50C100 22.375 77.6156 0 50 0ZM68.75 46.875H53.125V31.25C53.125 29.5312 51.7281 28.125 50 28.125C48.2719 28.125 46.875 29.5312 46.875 31.25V46.875H31.25C29.5219 46.875 28.125 48.2812 28.125 50C28.125 51.7188 29.5219 53.125 31.25 53.125H46.875V68.75C46.875 70.4688 48.2719 71.875 50 71.875C51.7281 71.875 53.125 70.4688 53.125 68.75V53.125H68.75C70.4781 53.125 71.875 51.7188 71.875 50C71.875 48.2812 70.4781 46.875 68.75 46.875Z" fill="white"/>
</g>
<defs>
<clipPath id="clip0_34_2">
<rect width="100" height="100" fill="white"/>
</clipPath>
</defs>
</svg>
